<?xml version="1.0" encoding="UTF-8" standalone="no"?>
<!-- Created with Inkscape (http://www.inkscape.org/) -->

<svg
   xmlns:dc="http://purl.org/dc/elements/1.1/"
   xmlns:cc="http://creativecommons.org/ns#"
   xmlns:rdf="http://www.w3.org/1999/02/22-rdf-syntax-ns#"
   xmlns:svg="http://www.w3.org/2000/svg"
   xmlns="http://www.w3.org/2000/svg"
   xmlns:sodipodi="http://sodipodi.sourceforge.net/DTD/sodipodi-0.dtd"
   xmlns:inkscape="http://www.inkscape.org/namespaces/inkscape"
   width="512"
   height="512"
   id="svg2"
   version="1.1"
   inkscape:version="0.48.4 r9939"
   inkscape:export-filename="/home/eisd/build/dmix/icons/icon_store.png"
   inkscape:export-xdpi="90"
   inkscape:export-ydpi="90"
   sodipodi:docname="New document 1">
  <defs
     id="defs4">
    <clipPath
       clipPathUnits="userSpaceOnUse"
       id="clipPath4097">
      <rect
         style="fill:#ffffff;fill-opacity:1;stroke:none"
         id="rect4099"
         width="192"
         height="192"
         x="0"
         y="540.36218" />
    </clipPath>
    <clipPath
       clipPathUnits="userSpaceOnUse"
       id="clipPath4101">
      <rect
         style="fill:#ffffff;fill-opacity:1;stroke:none"
         id="rect4103"
         width="192"
         height="192"
         x="0"
         y="540.36218" />
    </clipPath>
    <clipPath
       clipPathUnits="userSpaceOnUse"
       id="clipPath4105">
      <rect
         style="fill:#ffffff;fill-opacity:1;stroke:none"
         id="rect4107"
         width="192"
         height="192"
         x="0"
         y="540.36218" />
    </clipPath>
    <clipPath
       clipPathUnits="userSpaceOnUse"
       id="clipPath4109">
      <rect
         style="fill:#ffffff;fill-opacity:1;stroke:none"
         id="rect4111"
         width="192"
         height="192"
         x="0"
         y="540.36218" />
    </clipPath>
    <clipPath
       clipPathUnits="userSpaceOnUse"
       id="clipPath4113">
      <rect
         style="fill:#ffffff;fill-opacity:1;stroke:none"
         id="rect4115"
         width="196"
         height="196"
         x="256"
         y="0" />
    </clipPath>
  </defs>
  <sodipodi:namedview
     id="base"
     pagecolor="#ffffff"
     bordercolor="#666666"
     borderopacity="1.0"
     inkscape:pageopacity="0.0"
     inkscape:pageshadow="2"
     inkscape:zoom="0.35"
     inkscape:cx="-340.63354"
     inkscape:cy="348.22369"
     inkscape:document-units="px"
     inkscape:current-layer="layer1"
     showgrid="true"
     guidetolerance="1"
     objecttolerance="1"
     inkscape:window-width="1920"
     inkscape:window-height="1061"
     inkscape:window-x="1366"
     inkscape:window-y="0"
     inkscape:window-maximized="0">
    <inkscape:grid
       type="xygrid"
       id="grid2985"
       empspacing="8"
       visible="true"
       enabled="true"
       snapvisiblegridlinesonly="true"
       spacingx="8px"
       originy="0px"
       spacingy="8px"
       empcolor="#0000ff"
       empopacity="0.25098039"
       dotted="false" />
  </sodipodi:namedview>
  <metadata
     id="metadata7">
    <rdf:RDF>
      <cc:Work
         rdf:about="">
        <dc:format>image/svg+xml</dc:format>
        <dc:type
           rdf:resource="http://purl.org/dc/dcmitype/StillImage" />
        <dc:title></dc:title>
      </cc:Work>
    </rdf:RDF>
  </metadata>
  <g
     inkscape:label="Layer 1"
     inkscape:groupmode="layer"
     id="layer1"
     transform="translate(0,-540.36218)">
    <rect
       style="fill:#ffffff;fill-opacity:1;stroke:none;stroke-width:32;stroke-linejoin:round;stroke-miterlimit:4;stroke-opacity:1;stroke-dasharray:none"
       id="rect4249"
       width="512"
       height="512"
       x="0"
       y="0"
       transform="translate(0,540.36218)"
       rx="32"
       ry="32" />
    <g
       id="g4536">
      <rect
         ry="28"
         rx="28"
         y="796.36218"
         x="32"
         height="224"
         width="448"
         id="rect2987"
         style="fill:#969696;fill-opacity:1;fill-rule:evenodd;stroke:none" />
      <rect
         ry="8.9999866"
         rx="8.9999866"
         y="872.36224"
         x="316.00006"
         height="71.999893"
         width="71.999893"
         id="rect3759"
         style="fill:#7171e3;fill-opacity:0.69668244;stroke:#ffffff;stroke-width:8.00010395;stroke-miterlimit:4;stroke-opacity:1;stroke-dasharray:none" />
      <path
         inkscape:transform-center-x="-12"
         transform="translate(25,581.36196)"
         d="m 176,320 -72,41.56922 0,-83.13844 z"
         inkscape:randomized="0"
         inkscape:rounded="2.1857516e-16"
         inkscape:flatsided="true"
         sodipodi:arg2="1.0471976"
         sodipodi:arg1="0"
         sodipodi:r2="24"
         sodipodi:r1="48"
         sodipodi:cy="320"
         sodipodi:cx="128"
         sodipodi:sides="3"
         id="path3791"
         style="fill:#7171e3;fill-opacity:0.69668244;stroke:#ffffff;stroke-width:8;stroke-linejoin:round;stroke-miterlimit:4;stroke-opacity:1;stroke-dasharray:none"
         sodipodi:type="star" />
      <path
         clip-path="url(#clipPath4113)"
         transform="matrix(0.97959184,0,0,0.97959184,-218.77551,564.36218)"
         d="M 448,0 A 192,192 0 1 1 64,0 192,192 0 1 1 448,0 z"
         sodipodi:ry="192"
         sodipodi:rx="192"
         sodipodi:cy="0"
         sodipodi:cx="256"
         id="path3802"
         style="fill:#7171e3;fill-opacity:0.69668244;stroke:#ffffff;stroke-width:8;stroke-linejoin:round;stroke-miterlimit:4;stroke-opacity:1;stroke-dasharray:none"
         sodipodi:type="arc" />
      <path
         transform="translate(32,23.999999)"
         clip-path="url(#clipPath4109)"
         inkscape:connector-curvature="0"
         id="path3802-9"
         d="m -2.28125,380.15625 c -76.9302,-0.35213 -148.0697,62.58617 -156.7324,139.02159 -8.68602,65.09533 26.06478,134.86142 85.7324,163.75966 56.79354,29.5763 132.11506,21.41809 179.59375,-22.59375 42.98577,-37.86057 63.91791,-100.04608 49.875,-156.03125 C 143.77655,449.71664 101.07043,402.90744 47.04666,387.22936 31.0827,382.26474 14.43856,379.79473 -2.28125,380.15625 z"
         style="fill:#7171e3;fill-opacity:0.69668244;stroke:#ffffff;stroke-width:7.83673477;stroke-linejoin:round;stroke-miterlimit:4;stroke-opacity:1;stroke-dasharray:none" />
      <path
         transform="translate(32,23.999999)"
         clip-path="url(#clipPath4105)"
         inkscape:connector-curvature="0"
         id="path3863"
         d="m -0.96875,411.96875 c -68.41683,-0.94221 -130.69263,62.08021 -127.6875,130.625 1.43218,55.91702 42.22705,109.96004 97.34375,122.46875 C 22.90838,678.3289 85.87917,653.3959 112.21236,603.16156 139.89221,553.68271 131.19806,485.23275 88.05478,447.1878 64.2543,424.84815 31.81537,411.25724 -0.96875,411.96875 z"
         style="fill:#7171e3;fill-opacity:0.69668244;stroke:#ffffff;stroke-width:7.83673477;stroke-linejoin:round;stroke-miterlimit:4;stroke-opacity:1;stroke-dasharray:none" />
      <path
         transform="translate(32,23.999999)"
         clip-path="url(#clipPath4101)"
         inkscape:connector-curvature="0"
         id="path3895"
         d="m -1.5,443.90625 c -55.43314,-0.44062 -103.89177,55.52126 -94.40625,110.375 7.4669,46.91941 52.38754,86.32353 100.6875,82.53125 45.02062,-2.44138 87.38489,-39.08038 91.09672,-84.86678 C 100.72649,509.3933 75.13384,464.35475 34.09375,450.3125 22.75738,445.80058 10.70066,443.65892 -1.5,443.90625 z"
         style="fill:#7171e3;fill-opacity:0.69668244;stroke:#ffffff;stroke-width:7.83673477;stroke-linejoin:round;stroke-miterlimit:4;stroke-opacity:1;stroke-dasharray:none" />
      <path
         transform="translate(32,23.999999)"
         clip-path="url(#clipPath4097)"
         inkscape:connector-curvature="0"
         id="path3927"
         d="m -0.90625,475.65625 c -41.88677,-0.42319 -76.10635,48.01268 -60,87.15625 12.79837,33.63148 56.69775,53.12733 89.28125,35.625 C 60.22725,583.60411 75.77168,539.30477 56,508.90625 44.59055,489.06191 22.48587,474.77334 -0.90625,475.65625 z"
         style="fill:#969696;fill-opacity:1;stroke:#ffffff;stroke-width:7.83673476999999963;stroke-linejoin:round;stroke-miterlimit:4;stroke-opacity:1;stroke-dasharray:none" />
      <path
         inkscape:connector-curvature="0"
         id="path4183"
         d="M -12.066562,622.42874 78.066562,532.29562"
         style="fill:none;stroke:#ffffff;stroke-width:31.8668766;stroke-linecap:butt;stroke-linejoin:miter;stroke-miterlimit:4;stroke-opacity:1;stroke-dasharray:none" />
      <path
         sodipodi:type="arc"
         style="fill:#7171e3;fill-opacity:0.69668244;stroke:#ffffff;stroke-width:8;stroke-linejoin:round;stroke-miterlimit:4;stroke-opacity:1;stroke-dasharray:none"
         id="path4225"
         sodipodi:cx="256"
         sodipodi:cy="0"
         sodipodi:rx="192"
         sodipodi:ry="192"
         d="M 448,0 A 192,192 0 1 1 64,0 192,192 0 1 1 448,0 z"
         transform="matrix(-0.97959184,0,0,0.97959184,738.77551,564.36218)"
         clip-path="url(#clipPath4113)" />
      <path
         style="fill:#7171e3;fill-opacity:0.69668244;stroke:#ffffff;stroke-width:7.83673477;stroke-linejoin:round;stroke-miterlimit:4;stroke-opacity:1;stroke-dasharray:none"
         d="m -2.28125,380.15625 c -76.9302,-0.35213 -148.0697,62.58617 -156.7324,139.02159 -8.68602,65.09533 26.06478,134.86142 85.7324,163.75966 56.79354,29.5763 132.11506,21.41809 179.59375,-22.59375 42.98577,-37.86057 63.91791,-100.04608 49.875,-156.03125 C 143.77655,449.71664 101.07043,402.90744 47.04666,387.22936 31.0827,382.26474 14.43856,379.79473 -2.28125,380.15625 z"
         id="path4227"
         inkscape:connector-curvature="0"
         clip-path="url(#clipPath4109)"
         transform="matrix(-1,0,0,1,488,23.999999)" />
      <path
         style="fill:#7171e3;fill-opacity:0.69668244;stroke:#ffffff;stroke-width:7.83673477;stroke-linejoin:round;stroke-miterlimit:4;stroke-opacity:1;stroke-dasharray:none"
         d="m -0.96875,411.96875 c -68.41683,-0.94221 -130.69263,62.08021 -127.6875,130.625 1.43218,55.91702 42.22705,109.96004 97.34375,122.46875 C 22.90838,678.3289 85.87917,653.3959 112.21236,603.16156 139.89221,553.68271 131.19806,485.23275 88.05478,447.1878 64.2543,424.84815 31.81537,411.25724 -0.96875,411.96875 z"
         id="path4229"
         inkscape:connector-curvature="0"
         clip-path="url(#clipPath4105)"
         transform="matrix(-1,0,0,1,488,23.999999)" />
      <path
         style="fill:#7171e3;fill-opacity:0.69668244;stroke:#ffffff;stroke-width:7.83673477;stroke-linejoin:round;stroke-miterlimit:4;stroke-opacity:1;stroke-dasharray:none"
         d="m -1.5,443.90625 c -55.43314,-0.44062 -103.89177,55.52126 -94.40625,110.375 7.4669,46.91941 52.38754,86.32353 100.6875,82.53125 45.02062,-2.44138 87.38489,-39.08038 91.09672,-84.86678 C 100.72649,509.3933 75.13384,464.35475 34.09375,450.3125 22.75738,445.80058 10.70066,443.65892 -1.5,443.90625 z"
         id="path4231"
         inkscape:connector-curvature="0"
         clip-path="url(#clipPath4101)"
         transform="matrix(-1,0,0,1,488,23.999999)" />
      <path
         style="fill:#969696;fill-opacity:1;stroke:#ffffff;stroke-width:7.83673476999999963;stroke-linejoin:round;stroke-miterlimit:4;stroke-opacity:1;stroke-dasharray:none"
         d="m -0.90625,475.65625 c -41.88677,-0.42319 -76.10635,48.01268 -60,87.15625 12.79837,33.63148 56.69775,53.12733 89.28125,35.625 C 60.22725,583.60411 75.77168,539.30477 56,508.90625 44.59055,489.06191 22.48587,474.77334 -0.90625,475.65625 z"
         id="path4233"
         inkscape:connector-curvature="0"
         clip-path="url(#clipPath4097)"
         transform="matrix(-1,0,0,1,488,23.999999)" />
      <path
         style="fill:none;stroke:#ffffff;stroke-width:31.8668766;stroke-linecap:butt;stroke-linejoin:miter;stroke-miterlimit:4;stroke-opacity:1;stroke-dasharray:none"
         d="M 532.06656,622.42874 441.93344,532.29562"
         id="path4235"
         inkscape:connector-curvature="0" />
    </g>
  </g>
</svg>
