<?xml version="1.0" encoding="UTF-8" standalone="no"?>
<!-- Created with Inkscape (http://www.inkscape.org/) -->

<svg
   xmlns:dc="http://purl.org/dc/elements/1.1/"
   xmlns:cc="http://creativecommons.org/ns#"
   xmlns:rdf="http://www.w3.org/1999/02/22-rdf-syntax-ns#"
   xmlns:svg="http://www.w3.org/2000/svg"
   xmlns="http://www.w3.org/2000/svg"
   xmlns:sodipodi="http://sodipodi.sourceforge.net/DTD/sodipodi-0.dtd"
   xmlns:inkscape="http://www.inkscape.org/namespaces/inkscape"
   width="512"
   height="512"
   id="svg2"
   version="1.1"
   inkscape:version="0.48.4 r9939"
   inkscape:export-filename="/home/eisd/build/dmix/icons/icon_store.png"
   inkscape:export-xdpi="94.199997"
   inkscape:export-ydpi="94.199997"
   sodipodi:docname="speakers_dark_bar.svg">
  <defs
     id="defs4">
    <clipPath
       clipPathUnits="userSpaceOnUse"
       id="clipPath4097">
      <rect
         style="fill:#ffffff;fill-opacity:1;stroke:none"
         id="rect4099"
         width="192"
         height="192"
         x="0"
         y="540.36218" />
    </clipPath>
    <clipPath
       clipPathUnits="userSpaceOnUse"
       id="clipPath4101">
      <rect
         style="fill:#ffffff;fill-opacity:1;stroke:none"
         id="rect4103"
         width="192"
         height="192"
         x="0"
         y="540.36218" />
    </clipPath>
    <clipPath
       clipPathUnits="userSpaceOnUse"
       id="clipPath4105">
      <rect
         style="fill:#ffffff;fill-opacity:1;stroke:none"
         id="rect4107"
         width="192"
         height="192"
         x="0"
         y="540.36218" />
    </clipPath>
    <clipPath
       clipPathUnits="userSpaceOnUse"
       id="clipPath4109">
      <rect
         style="fill:#ffffff;fill-opacity:1;stroke:none"
         id="rect4111"
         width="192"
         height="192"
         x="0"
         y="540.36218" />
    </clipPath>
    <clipPath
       clipPathUnits="userSpaceOnUse"
       id="clipPath4113">
      <rect
         style="fill:#ffffff;fill-opacity:1;stroke:none"
         id="rect4115"
         width="196"
         height="196"
         x="256"
         y="0" />
    </clipPath>
  </defs>
  <sodipodi:namedview
     id="base"
     pagecolor="#ffffff"
     bordercolor="#666666"
     borderopacity="1.0"
     inkscape:pageopacity="0.0"
     inkscape:pageshadow="2"
     inkscape:zoom="0.49497475"
     inkscape:cx="309.06292"
     inkscape:cy="167.58493"
     inkscape:document-units="px"
     inkscape:current-layer="layer1"
     showgrid="true"
     guidetolerance="1"
     objecttolerance="1"
     inkscape:window-width="1366"
     inkscape:window-height="749"
     inkscape:window-x="0"
     inkscape:window-y="0"
     inkscape:window-maximized="0">
    <inkscape:grid
       type="xygrid"
       id="grid2985"
       empspacing="8"
       visible="true"
       enabled="true"
       snapvisiblegridlinesonly="true"
       spacingx="8px"
       originy="0px"
       spacingy="8px"
       empcolor="#0000ff"
       empopacity="0.25098039"
       dotted="false" />
  </sodipodi:namedview>
  <metadata
     id="metadata7">
    <rdf:RDF>
      <cc:Work
         rdf:about="">
        <dc:format>image/svg+xml</dc:format>
        <dc:type
           rdf:resource="http://purl.org/dc/dcmitype/StillImage" />
        <dc:title></dc:title>
      </cc:Work>
    </rdf:RDF>
  </metadata>
  <g
     inkscape:label="Layer 1"
     inkscape:groupmode="layer"
     id="layer1"
     transform="translate(0,-540.36218)">
    <path
       style="fill:#3c3c3c;fill-opacity:1;stroke:none"
       d="M 477.25,551.96875 C 327.0171,553.28035 176.74206,551.30149 26.53125,553 14.769905,556.29921 9.5240618,570.16917 12.002242,581.375 12.460235,729.67283 11.079256,878.00603 12.75,1026.2812 c 3.627492,11.8771 18.018618,16.5381 29.249997,14.0916 147.932843,-0.4583 295.904323,0.9234 443.812503,-0.7478 11.58229,-3.4277 16.62179,-17.2504 14.18526,-28.25 -0.5151,-148.41862 1.07067,-296.90651 -0.87276,-445.28125 -2.89288,-8.96943 -12.70166,-14.6423 -21.875,-14.125 z"
       id="rect4249"
       inkscape:connector-curvature="0" />
    <g
       id="g3852">
      <rect
         ry="28"
         rx="28"
         y="796.36218"
         x="32"
         height="224"
         width="448"
         id="rect2987"
         style="fill:#d3d3d3;fill-opacity:1;fill-rule:evenodd;stroke:none" />
      <rect
         ry="8.9999866"
         rx="8.9999866"
         y="872.36224"
         x="316.00006"
         height="71.999893"
         width="71.999893"
         style="fill:#7878dc;fill-opacity:1;stroke:#ffffff;stroke-width:8.00010394999999797;stroke-miterlimit:4;stroke-opacity:1;stroke-dasharray:none"
         id="rect3759" />
      <path
         inkscape:transform-center-x="-12"
         transform="translate(25,581.36196)"
         d="m 176,320 -72,41.56922 0,-83.13844 z"
         inkscape:randomized="0"
         inkscape:rounded="2.1857516e-16"
         inkscape:flatsided="true"
         sodipodi:arg2="1.0471976"
         sodipodi:arg1="0"
         sodipodi:r2="24"
         sodipodi:r1="48"
         sodipodi:cy="320"
         sodipodi:cx="128"
         sodipodi:sides="3"
         id="path3791"
         style="fill:#7878dc;fill-opacity:1;stroke:#ffffff;stroke-width:8;stroke-linejoin:round;stroke-miterlimit:4;stroke-opacity:1;stroke-dasharray:none"
         sodipodi:type="star" />
    </g>
    <path
       inkscape:transform-center-x="-12"
       d="m 176,320 -72,41.56922 0,-83.13844 z"
       inkscape:randomized="0"
       inkscape:rounded="2.1857516e-16"
       inkscape:flatsided="true"
       sodipodi:arg2="1.0471976"
       sodipodi:arg1="0"
       sodipodi:r2="24"
       sodipodi:r1="48"
       sodipodi:cy="320"
       sodipodi:cx="128"
       sodipodi:sides="3"
       style="fill:#3c3c3c;fill-opacity:1;stroke:#3c3c3c;stroke-width:8;stroke-linejoin:round;stroke-miterlimit:4;stroke-opacity:1;stroke-dasharray:none"
       sodipodi:type="star"
       id="path3848"
       transform="translate(25,581.36196)" />
    <rect
       ry="8.9999866"
       rx="8.9999866"
       y="872.36224"
       x="316.00006"
       height="71.999893"
       width="71.999893"
       style="fill:#3c3c3c;fill-opacity:1;stroke:#3c3c3c;stroke-width:8.00010394999999797;stroke-miterlimit:4;stroke-opacity:1;stroke-dasharray:none"
       id="rect3850" />
    <g
       id="g4016"
       transform="translate(13.999841,4.9998181)">
      <path
         inkscape:connector-curvature="0"
         id="path4014"
         d="m 182.3039,636.47874 0,63.76688 c 5.12024,-0.34555 10.26504,-0.0418 15.3922,-0.19803 l 0,-63.37082 c -5.12702,-0.16003 -10.27204,0.14984 -15.3922,-0.19803 z"
         style="fill:#33b5e5;fill-opacity:1;stroke:#33b5e5;stroke-width:4.6078043;stroke-linejoin:round;stroke-miterlimit:4;stroke-opacity:1" />
      <path
         transform="translate(0,540.36218)"
         id="path4012"
         d="m 168,97.8125 0,60.375 c 0.33297,-0.007 0.66696,0.007 1,0 l 0,-60.375 c -0.33304,-0.0067 -0.66704,0.0073 -1,0 z"
         style="fill:#33b5e5;fill-opacity:1;stroke:#33b5e5;stroke-width:7.99968195;stroke-linejoin:round;stroke-miterlimit:4;stroke-opacity:1"
         inkscape:connector-curvature="0" />
      <path
         transform="translate(0,540.36218)"
         id="path3960"
         d="M 54,35.46875 54,220.53125 163,158.25 c 1.66301,-0.053 3.33495,-0.0261 5,-0.0625 l 0,-60.375 c -1.66502,-0.03669 -3.33705,-0.009 -5,-0.0625 L 54,35.46875 z"
         style="fill:#33b5e5;fill-opacity:1;stroke:#33b5e5;stroke-width:7.99968195;stroke-linejoin:round;stroke-miterlimit:4;stroke-opacity:1"
         inkscape:connector-curvature="0" />
    </g>
    <g
       id="g4035"
       transform="matrix(-1,0,0,1,498,4.999909)">
      <path
         style="fill:#33b5e5;fill-opacity:1;stroke:#33b5e5;stroke-width:4.6078043;stroke-linejoin:round;stroke-miterlimit:4;stroke-opacity:1"
         d="m 182.3039,636.47874 0,63.76688 c 5.12024,-0.34555 10.26504,-0.0418 15.3922,-0.19803 l 0,-63.37082 c -5.12702,-0.16003 -10.27204,0.14984 -15.3922,-0.19803 z"
         id="path4037"
         inkscape:connector-curvature="0" />
      <path
         style="fill:#33b5e5;fill-opacity:1;stroke:#33b5e5;stroke-width:7.99968195;stroke-linejoin:round;stroke-miterlimit:4;stroke-opacity:1"
         d="m 168,97.8125 0,60.375 c 0.33297,-0.007 0.66696,0.007 1,0 l 0,-60.375 c -0.33304,-0.0067 -0.66704,0.0073 -1,0 z"
         id="path4039"
         transform="translate(0,540.36218)"
         inkscape:connector-curvature="0" />
      <path
         style="fill:#33b5e5;fill-opacity:1;stroke:#33b5e5;stroke-width:7.99968195;stroke-linejoin:round;stroke-miterlimit:4;stroke-opacity:1"
         d="M 54,35.46875 54,220.53125 163,158.25 c 1.66301,-0.053 3.33495,-0.0261 5,-0.0625 l 0,-60.375 c -1.66502,-0.03669 -3.33705,-0.009 -5,-0.0625 L 54,35.46875 z"
         id="path4041"
         transform="translate(0,540.36218)"
         inkscape:connector-curvature="0" />
    </g>
  </g>
</svg>
